<svg width="860" height="520" viewBox="0 0 860 520" fill="none" xmlns="http://www.w3.org/2000/svg" role="img" aria-labelledby="title desc">
  <title id="title">黄浦区公共卫生病原基因数据库标识</title>
  <desc id="desc">An abstract Huangpu District map mark with pathogen data reads and a public-health interpretation node.</desc>
  <defs>
    <path id="huangpu-map" d="M123 234.4L143 286.3L168.4 316.4L184.8 357.8L212.5 391.6L294.5 383.4L332.4 362L385.8 286.5L391.2 243.4L352.9 193.9L308.7 151.7L315.6 120.2L269.7 110.5L233.1 130.2L184.6 135.8L166.8 158.1L173.7 215.4L118.2 215.2Z"/>
    <clipPath id="map-clip">
      <use href="#huangpu-map"/>
    </clipPath>
  </defs>
  <style>
    .sans { font-family: "Source Sans 3", "PingFang SC", "Noto Sans CJK SC", sans-serif; }
  </style>

  <rect width="860" height="520" fill="#F6F1E7"/>

  <g transform="translate(52 52) scale(0.9)">
    <rect x="44" y="44" width="424" height="424" rx="92" fill="#F6F1E7"/>
    <g transform="translate(256 256) scale(1.17) translate(-256 -256)">
      <use href="#huangpu-map" fill="#17324A"/>
      <use href="#huangpu-map" stroke="#C99A35" stroke-width="8" stroke-linejoin="round"/>
      <g clip-path="url(#map-clip)">
        <path d="M146 210H238" stroke="#F8F1E5" stroke-width="13" stroke-linecap="round"/>
        <path d="M170 260H316" stroke="#F8F1E5" stroke-width="13" stroke-linecap="round"/>
        <path d="M208 310H304" stroke="#F8F1E5" stroke-width="13" stroke-linecap="round"/>
        <path d="M254 128C214 174 212 226 252 270C294 316 288 356 250 400" stroke="#F6F1E7" stroke-width="15" stroke-linecap="round"/>
        <path d="M254 128C214 174 212 226 252 270C294 316 288 356 250 400" stroke="#17324A" stroke-width="6" stroke-linecap="round"/>
        <circle cx="252" cy="270" r="18" fill="#1EA6A0"/>
        <circle cx="252" cy="270" r="7" fill="#F8F1E5"/>
        <path d="M328 224H376" stroke="#C99A35" stroke-width="11" stroke-linecap="round"/>
        <path d="M282 352H338" stroke="#C99A35" stroke-width="11" stroke-linecap="round"/>
      </g>
    </g>
  </g>

  <g class="sans">
    <text x="454" y="154" font-size="24" font-weight="800" letter-spacing="4" fill="#927335">HUANGPU CDC</text>
    <text x="452" y="226" font-size="40" font-weight="800" fill="#17324A">黄浦病原基因数据库</text>
    <text x="454" y="284" font-size="28" font-weight="700" fill="#5C6870">生物信息分析与分子溯源系统</text>
    <text x="454" y="342" font-size="21" font-weight="700" letter-spacing="1.5" fill="#927335">PATHOGEN DATA · TYPING · TRACEBACK</text>
  </g>

  <g>
    <path d="M454 392H528" stroke="#17324A" stroke-width="7" stroke-linecap="round"/>
    <path d="M554 392H608" stroke="#C99A35" stroke-width="7" stroke-linecap="round"/>
    <circle cx="636" cy="392" r="8" fill="#1EA6A0"/>
  </g>
</svg>
